# xmcd
#
# Track frame offsets: 
#        150
#        20371
#        37844
#        57247
#        75271
#        94064
#        111255
#        133521
#        148542
#        168690
#        187560
#        205719
#
# Disc length: 2992 seconds
#
# Revision: 0
# Processed by: cddbd v1.5.2PL0 Copyright (c) Steve Scherf et al.
# Submitted via: ExactAudioCopy v0.95b3
#
DISCID=8e0bae0c
DTITLE=Randy Rogers Band - Just A Matter Of Time
DYEAR=2006
DGENRE=Country
TTITLE0=Better Off Wrong
TTITLE1=Kiss Me in the Dark
TTITLE2=One More Goodbye
TTITLE3=Just a Matter of Time
TTITLE4=You Could've Left Me
TTITLE5=You Could Change My Mind
TTITLE6=Before I Believe It's True
TTITLE7=You Start Over Your Way
TTITLE8=If Anyone Asks
TTITLE9=You Don't Know Me
TTITLE10=If I Told You the Truth
TTITLE11=Whiskey's Got a Hold on Me
EXTD=
EXTT0=
EXTT1=
EXTT2=
EXTT3=
EXTT4=
EXTT5=
EXTT6=
EXTT7=
EXTT8=
EXTT9=
EXTT10=
EXTT11=
PLAYORDER=
